<?xml version="1.0" standalone="no"?>
<!DOCTYPE svg PUBLIC "-//W3C//DTD SVG 20010904//EN"
 "http://www.w3.org/TR/2001/REC-SVG-20010904/DTD/svg10.dtd">
<svg version="1.0" xmlns="http://www.w3.org/2000/svg"
 width="400.000000pt" height="400.000000pt" viewBox="0 0 400.000000 400.000000"
 preserveAspectRatio="xMidYMid meet">
<metadata>
Created by potrace 1.14, written by Peter Selinger 2001-2017
</metadata>
<g transform="translate(0.000000,400.000000) scale(0.100000,-0.100000)"
fill="#000000" stroke="none">
<path d="M1829 3996 c-2 -2 -33 -7 -68 -10 -36 -4 -67 -8 -70 -10 -3 -2 -30
-7 -60 -10 -29 -4 -57 -8 -61 -11 -4 -2 -21 -7 -39 -10 -98 -17 -332 -106
-461 -174 -562 -297 -935 -818 -1046 -1461 -20 -112 -26 -442 -11 -548 4 -28
10 -69 13 -90 21 -144 98 -388 170 -537 171 -357 448 -658 794 -861 238 -141
512 -231 790 -262 126 -14 499 -5 528 12 4 2 31 7 61 10 29 4 57 8 61 11 4 2
21 7 38 10 18 3 69 17 114 31 368 116 644 293 919 591 44 48 189 242 197 263
3 8 11 22 18 30 32 39 137 269 177 390 82 244 107 414 102 680 -2 102 -5 194
-8 205 -3 11 -8 43 -11 70 -20 147 -96 391 -170 545 -257 537 -736 931 -1316
1081 -142 36 -264 51 -461 54 -108 2 -198 3 -200 1z"/>
</g>
</svg>
